<svg xmlns="http://www.w3.org/2000/svg" width="130" height="56" viewBox="0 0 130 56">
  <g fill="none" fill-rule="evenodd">
    <rect width="130" height="56" fill="#FFF"/>
    <path fill="#2A2859" fill-rule="nonzero" d="M5.504,34.224 C8.544,34.224 11.008,32 11.008,27.952 C11.008,24.304 8.544,22 5.504,22 C2.464,22 -2.13162821e-14,24.304 -2.13162821e-14,27.952 C-2.13162821e-14,32 2.464,34.224 5.504,34.224 Z M5.504,31.888 C3.936,31.888 2.624,30.704 2.624,27.984 C2.624,25.472 3.904,24.336 5.504,24.336 C7.104,24.336 8.384,25.472 8.384,27.984 C8.384,30.704 7.072,31.888 5.504,31.888 Z M15.916,34.032 L15.916,30.096 L17.068,28.864 L20.316,34.032 L23.324,34.032 L18.668,27.136 L23.26,22.192 L20.252,22.192 L15.916,27.04 L15.916,22.192 L13.42,22.192 L13.42,34.032 L15.916,34.032 Z M27.816,34.032 L27.816,29.872 L29.304,29.872 L31.592,34.032 L34.6,34.032 L31.528,29.248 C33.144,28.896 34.28,27.632 34.28,25.872 C34.28,23.68 32.68,22.192 30.312,22.192 L25.32,22.192 L25.32,34.032 L27.816,34.032 Z M29.864,27.696 L27.816,27.696 L27.816,24.4 L30.024,24.4 C31,24.4 31.688,24.944 31.688,26.064 C31.688,27.088 31,27.696 29.864,27.696 Z M40.02,29.648 L40.02,27.376 L36.18,27.376 L36.18,29.648 L40.02,29.648 Z M46.304,34.032 L46.304,24.464 L49.696,24.464 L49.696,22.192 L40.416,22.192 L40.416,24.464 L43.808,24.464 L43.808,34.032 L46.304,34.032 Z M54.38,34.032 L54.38,29.872 L55.868,29.872 L58.156,34.032 L61.164,34.032 L58.092,29.248 C59.708,28.896 60.844,27.632 60.844,25.872 C60.844,23.68 59.244,22.192 56.876,22.192 L51.884,22.192 L51.884,34.032 L54.38,34.032 Z M56.428,27.696 L54.38,27.696 L54.38,24.4 L56.588,24.4 C57.564,24.4 58.252,24.944 58.252,26.064 C58.252,27.088 57.564,27.696 56.428,27.696 Z M64.792,34.032 L65.48,31.76 L69.704,31.76 L70.36,34.032 L73.208,34.032 L69.176,22.192 L66.2,22.192 L62.168,34.032 L64.792,34.032 Z M69.08,29.584 L66.12,29.584 L67.624,24.576 L69.08,29.584 Z M79.716,34.224 C81.94,34.224 83.62,33.248 84.532,31.376 L82.58,30.112 C81.972,31.184 81.076,31.824 79.828,31.824 C78.068,31.824 76.676,30.56 76.676,28.048 C76.676,25.44 78.324,24.4 79.86,24.4 C80.98,24.4 81.86,25.024 82.34,26 L84.468,24.752 C83.476,22.88 81.844,22 79.844,22 C76.756,22 74.052,24.352 74.052,28.08 C74.052,31.92 76.452,34.224 79.716,34.224 Z M89.408,34.032 L89.408,30.096 L90.56,28.864 L93.808,34.032 L96.816,34.032 L92.16,27.136 L96.752,22.192 L93.744,22.192 L89.408,27.04 L89.408,22.192 L86.912,22.192 L86.912,34.032 L89.408,34.032 Z M106.78,34.032 L106.78,31.76 L101.308,31.76 L101.308,29.232 L105.404,29.232 L105.404,26.96 L101.308,26.96 L101.308,24.464 L106.652,24.464 L106.652,22.192 L98.812,22.192 L98.812,34.032 L106.78,34.032 Z M111.752,34.032 L111.752,29.872 L113.24,29.872 L115.528,34.032 L118.536,34.032 L115.464,29.248 C117.08,28.896 118.216,27.632 118.216,25.872 C118.216,23.68 116.616,22.192 114.248,22.192 L109.256,22.192 L109.256,34.032 L111.752,34.032 Z M113.8,27.696 L111.752,27.696 L111.752,24.4 L113.96,24.4 C114.936,24.4 115.624,24.944 115.624,26.064 C115.624,27.088 114.936,27.696 113.8,27.696 Z"/>
  </g>
</svg>
