<svg xmlns="http://www.w3.org/2000/svg" width="210" height="210" viewBox="0 0 210 210">
  <g fill="none" fill-rule="evenodd">
    <rect width="210" height="210" fill="#F9C66B"/>
    <path fill="#2A2859" fill-rule="nonzero" d="M105.722155,105.000057 C102.805496,105.000057 100.118003,104.291725 97.6596747,102.875062 C95.2013466,101.4584 93.2638512,99.5209043 91.8471885,97.0625761 C90.4305259,94.604248 89.7221936,91.9167544 89.7221936,89.0000954 C89.7221936,86.0834363 90.4305259,83.3959427 91.8471885,80.9376146 C93.2638512,78.4792865 95.2013466,76.5417911 97.6596747,75.1251284 C100.118003,73.7084658 102.805496,73.0001335 105.722155,73.0001335 C108.638815,73.0001335 111.326308,73.7084658 113.784636,75.1251284 C116.242964,76.5417911 118.18046,78.4792865 119.597122,80.9376146 C121.013785,83.3959427 121.722117,86.0834363 121.722117,89.0000954 C121.722117,91.9167544 121.013785,94.604248 119.597122,97.0625761 C118.18046,99.5209043 116.242964,101.4584 113.784636,102.875062 C111.326308,104.291725 108.638815,105.000057 105.722155,105.000057 Z M116.972129,109.000048 C119.972121,109.000048 122.763781,109.750046 125.347109,111.250042 C127.930436,112.750039 129.972098,114.7917 131.472094,117.375028 C132.97209,119.958356 133.722089,122.750015 133.722089,125.750008 L133.722089,130.999995 C133.722089,132.666657 133.138756,134.083322 131.972093,135.249985 C130.80543,136.416648 129.388765,136.999981 127.722103,136.999981 L83.7222079,136.999981 C82.0555459,136.999981 80.6388813,136.416648 79.472218,135.249985 C78.3055548,134.083322 77.7222222,132.666657 77.7222222,130.999995 L77.7222222,125.750008 C77.7222222,122.750015 78.4722204,119.958356 79.9722169,117.375028 C81.4722133,114.7917 83.5138744,112.750039 86.0972023,111.250042 C88.6805301,109.750046 91.4721894,109.000048 94.4721823,109.000048 L96.5971772,109.000048 C99.5138363,110.333378 102.555497,111.000048 105.722155,111.000048 C108.888814,111.000048 111.930475,110.333378 114.847134,109.000048 L116.972129,109.000048 Z"/>
  </g>
</svg>
