<svg xmlns="http://www.w3.org/2000/svg" width="210" height="210" viewBox="0 0 210 210">
  <g fill="none" fill-rule="evenodd">
    <rect width="210" height="210" fill="#B3F5FF"/>
    <path fill="#2A2859" fill-rule="nonzero" d="M77.2221936,101.000067 C81.6346587,101.000067 85.2221745,97.4125509 85.2221745,93.0000858 C85.2221745,88.5876208 81.6346587,85.0001049 77.2221936,85.0001049 C72.8097285,85.0001049 69.2222127,88.5876208 69.2222127,93.0000858 C69.2222127,97.4125509 72.8097285,101.000067 77.2221936,101.000067 Z M133.22206,101.000067 C137.634525,101.000067 141.222041,97.4125509 141.222041,93.0000858 C141.222041,88.5876208 137.634525,85.0001049 133.22206,85.0001049 C128.809595,85.0001049 125.222079,88.5876208 125.222079,93.0000858 C125.222079,97.4125509 128.809595,101.000067 133.22206,101.000067 Z M137.222051,105.000057 L129.22207,105.000057 C127.022124,105.000057 125.03458,105.887506 123.584632,107.325003 C128.622095,110.08757 132.197038,115.074984 132.972061,121.000019 L141.222041,121.000019 C143.43456,121.000019 145.222031,119.212548 145.222031,117.000029 L145.222031,113.000038 C145.222031,108.587573 141.634516,105.000057 137.222051,105.000057 Z M105.222127,105.000057 C112.959657,105.000057 119.222093,98.737621 119.222093,91.0000906 C119.222093,83.2625602 112.959657,77.000124 105.222127,77.000124 C97.4845965,77.000124 91.2221602,83.2625602 91.2221602,91.0000906 C91.2221602,98.737621 97.4845965,105.000057 105.222127,105.000057 Z M114.82208,109.000048 L113.784606,109.000048 C111.184637,110.250045 108.297071,111.000048 105.222127,111.000048 C102.147183,111.000048 99.2721899,110.250045 96.6596473,109.000048 L95.6221742,109.000048 C87.6721199,109.000048 81.2221841,115.449983 81.2221841,123.400038 L81.2221841,127.000005 C81.2221841,130.312497 83.9096777,132.99999 87.2221698,132.99999 L123.222084,132.99999 C126.534576,132.99999 129.22207,130.312497 129.22207,127.000005 L129.22207,123.400038 C129.22207,115.449983 122.772134,109.000048 114.82208,109.000048 Z M86.8596218,107.325003 C81.8221582,110.08757 78.2472156,115.074984 77.4597419,121.000019 L69.2222222,121.000019 C67.0096935,121.000019 65.2222222,119.212548 65.2222222,117.000029 L65.2222222,113.000038 C65.2222222,108.587573 68.8097381,105.000057 73.2222031,105.000057 L81.2221841,105.000057 C83.42213,105.000057 85.4096741,105.887506 86.8596218,107.325003 Z"/>
  </g>
</svg>
